<svg width="117" height="76" viewBox="0 0 117 76" fill="none" xmlns="http://www.w3.org/2000/svg">
<g clip-path="url(#clip0)">
<path d="M56.6975 42.7052C55.6105 40.491 54.5586 38.3707 53.5155 36.2481C53.3056 35.8258 53.158 35.5275 52.9821 34.9547C52.847 34.5307 52.5799 33.6254 53.0653 33.577C53.4704 33.5788 53.7578 33.6318 54.1941 34.3307C55.3116 36.1413 56.1508 38.1035 56.9939 40.0458C57.7372 41.7614 58.2778 43.081 58.8458 44.6377C59.1111 45.3647 58.8251 45.763 58.1185 45.8627C57.4844 45.9519 56.8351 46.0547 56.196 46.023C53.891 45.9211 51.598 45.7595 49.2922 45.6203C49.0057 45.6048 48.7813 45.6099 48.4429 45.5427C48.0337 45.4573 47.7313 45.4179 47.7331 45.0128C47.731 44.6276 48.2608 44.5012 48.5401 44.4904C50.8726 44.3495 55.6888 44.1391 55.9426 44.0695C54.8931 43.1247 53.9416 42.2283 52.9385 41.3837C45.9245 35.5352 38.5531 30.2363 30.0144 26.7536C23.2554 23.9966 16.2866 22.0874 9.02972 21.2547C8.60148 21.2028 8.1724 21.1134 7.76081 21.0193C7.20116 20.8999 6.93114 20.7387 6.97292 20.445C7.12576 19.9044 7.52606 19.8887 7.84434 19.8485C8.47851 19.7593 9.13992 19.8037 9.78143 19.8442C18.3568 20.4754 26.4096 23.0093 34.163 26.6133C42.121 30.3117 48.925 35.6345 55.3 41.5547C55.6244 41.8798 56.5016 42.6083 56.6975 42.7052Z" fill="black"/>
</g>
<path d="M83.6794 45.818V40.9312C83.6784 39.4014 83.9433 37.8921 84.4532 36.522C84.9632 35.152 85.7043 33.9586 86.6183 33.0358C87.5323 32.1129 88.5942 31.4857 89.7205 31.2035C90.8469 30.9214 92.0069 30.992 93.1093 31.4097C94.3468 30.193 95.8128 29.4586 97.3444 29.2883C98.876 29.1179 100.413 29.5184 101.784 30.445C103.155 31.3716 104.307 32.7881 105.111 34.5367C105.915 36.2853 106.339 38.2974 106.337 40.349V45.818C109.204 46.0878 111.881 47.8342 113.802 50.6885C115.722 53.5427 116.737 57.2817 116.632 61.116C116.527 64.9504 115.31 68.5803 113.238 71.2394C111.166 73.8985 108.401 75.3789 105.527 75.3681H84.4899C81.6157 75.3789 78.8507 73.8985 76.7787 71.2394C74.7066 68.5803 73.4896 64.9504 73.3844 61.116C73.2792 57.2817 74.2942 53.5427 76.215 50.6885C78.1359 47.8342 80.8123 46.0878 83.6794 45.818Z" fill="#222222"/>
<path d="M86.3487 49.0117H88.4606C88.7575 49.0117 89.0423 49.1692 89.2522 49.4494C89.4621 49.7297 89.5801 50.1098 89.5801 50.5062V70.631C89.5801 71.0274 89.4621 71.4075 89.2522 71.6878C89.0423 71.9681 88.7575 72.1255 88.4606 72.1255H86.3487C86.0518 72.1255 85.767 71.9681 85.5571 71.6878C85.3471 71.4075 85.2292 71.0274 85.2292 70.631V50.5062C85.2292 50.1098 85.3471 49.7297 85.5571 49.4494C85.767 49.1692 86.0518 49.0117 86.3487 49.0117ZM92.6639 50.5062V70.631C92.6639 71.0274 92.7818 71.4075 92.9918 71.6878C93.2017 71.9681 93.4865 72.1255 93.7834 72.1255H95.8953C96.1922 72.1255 96.477 71.9681 96.6869 71.6878C96.8968 71.4075 97.0148 71.0274 97.0148 70.631V50.5062C97.0148 50.1098 96.8968 49.7297 96.6869 49.4494C96.477 49.1692 96.1922 49.0117 95.8953 49.0117H93.7834C93.4865 49.0117 93.2017 49.1692 92.9918 49.4494C92.7818 49.7297 92.6639 50.1098 92.6639 50.5062ZM75.8371 60.5686C75.8373 62.866 76.3503 65.1112 77.3106 67.0177C78.2709 68.9242 79.6349 70.4056 81.2285 71.2728C81.3306 71.3222 81.44 71.3385 81.5477 71.3205C81.6554 71.3025 81.7584 71.2507 81.8482 71.1693C81.938 71.0878 82.0121 70.9792 82.0643 70.8521C82.1166 70.7251 82.1455 70.5834 82.1488 70.4385V50.7262C82.1473 50.5796 82.1195 50.4357 82.0678 50.3064C82.016 50.1771 81.9418 50.0663 81.8513 49.9832C81.7608 49.9002 81.6567 49.8473 81.5477 49.829C81.4388 49.8107 81.3281 49.8276 81.2251 49.8781C79.632 50.7451 78.2684 52.2257 77.3081 54.1314C76.3479 56.037 75.8346 58.2812 75.8336 60.5778" fill="#FCDC3E"/>
<path d="M108.762 52.3631C109.13 52.3631 109.49 52.5088 109.796 52.7818C110.102 53.0548 110.341 53.4429 110.482 53.8969C110.623 54.3509 110.659 54.8505 110.588 55.3325C110.516 55.8144 110.339 56.2572 110.078 56.6046C109.818 56.9521 109.486 57.1888 109.125 57.2846C108.764 57.3805 108.39 57.3313 108.05 57.1433C107.71 56.9552 107.419 56.6367 107.215 56.2281C107.01 55.8195 106.901 55.3391 106.901 54.8477C106.9 54.5213 106.948 54.1979 107.042 53.8962C107.135 53.5944 107.272 53.3203 107.445 53.0895C107.618 52.8586 107.823 52.6756 108.049 52.551C108.275 52.4263 108.518 52.3625 108.762 52.3631ZM91.0975 40.279V45.7801H104.954V40.279C104.914 37.8617 104.166 35.5616 102.871 33.871C101.576 32.1805 99.8369 31.2339 98.0257 31.2339C96.2145 31.2339 94.4752 32.1805 93.1804 33.871C91.8855 35.5616 91.1378 37.8617 91.0975 40.279ZM84.9162 40.8703V45.7755H89.7239V40.3477C89.7234 37.508 90.5411 34.7767 92.0075 32.7196C91.7099 32.6573 91.4091 32.6252 91.1078 32.6233C89.4684 32.6233 87.8962 33.4927 86.737 35.0401C85.5778 36.5876 84.9265 38.6865 84.9265 40.8749" fill="white"/>
<defs>
<clipPath id="clip0">
<rect width="52.2667" height="52.2667" fill="white" transform="translate(51.2578 0.736328) rotate(74.6653)"/>
</clipPath>
</defs>
</svg>
