<svg width="76" height="76" viewBox="0 0 76 76" fill="none" xmlns="http://www.w3.org/2000/svg">
<mask id="path-1-inside-1" fill="white">
<path fill-rule="evenodd" clip-rule="evenodd" d="M39.5623 34.999C38.2914 35.2886 36.9685 35.4415 35.6099 35.4415C35.5534 35.4415 35.497 35.4412 35.4407 35.4407C35.4189 37.7604 34.9515 39.9735 34.1198 41.9986C34.7527 42.3709 35.3603 42.7814 35.9396 43.2269C37.2951 42.1174 38.818 41.2048 40.4646 40.5328C39.8856 38.7925 39.5692 36.9322 39.5623 34.999ZM53.3305 17.6565C53.2959 7.89915 45.3754 0 35.6099 0C25.8796 0 17.9809 7.84242 17.89 17.5513C17.8336 17.5507 17.7772 17.5505 17.7207 17.5505C7.93384 17.5505 0 25.4843 0 35.2712C0 41.7838 3.51319 47.4758 8.74779 50.5555C7.89592 52.6299 7.42618 54.9016 7.42618 57.2829C7.42618 67.0698 15.36 75.0037 25.1469 75.0037C29.4029 75.0037 33.3085 73.5033 36.3636 71.0026C39.3523 73.3008 43.0947 74.6673 47.1563 74.6673C56.9432 74.6673 64.8771 66.7334 64.8771 56.9466C64.8771 54.9903 64.5601 53.1081 63.9747 51.3485C70.4443 48.7082 75.0037 42.354 75.0037 34.9348C75.0037 25.1479 67.0698 17.2141 57.2829 17.2141C55.9243 17.2141 54.6014 17.367 53.3305 17.6565Z"/>
</mask>
<path fill-rule="evenodd" clip-rule="evenodd" d="M39.5623 34.999C38.2914 35.2886 36.9685 35.4415 35.6099 35.4415C35.5534 35.4415 35.497 35.4412 35.4407 35.4407C35.4189 37.7604 34.9515 39.9735 34.1198 41.9986C34.7527 42.3709 35.3603 42.7814 35.9396 43.2269C37.2951 42.1174 38.818 41.2048 40.4646 40.5328C39.8856 38.7925 39.5692 36.9322 39.5623 34.999ZM53.3305 17.6565C53.2959 7.89915 45.3754 0 35.6099 0C25.8796 0 17.9809 7.84242 17.89 17.5513C17.8336 17.5507 17.7772 17.5505 17.7207 17.5505C7.93384 17.5505 0 25.4843 0 35.2712C0 41.7838 3.51319 47.4758 8.74779 50.5555C7.89592 52.6299 7.42618 54.9016 7.42618 57.2829C7.42618 67.0698 15.36 75.0037 25.1469 75.0037C29.4029 75.0037 33.3085 73.5033 36.3636 71.0026C39.3523 73.3008 43.0947 74.6673 47.1563 74.6673C56.9432 74.6673 64.8771 66.7334 64.8771 56.9466C64.8771 54.9903 64.5601 53.1081 63.9747 51.3485C70.4443 48.7082 75.0037 42.354 75.0037 34.9348C75.0037 25.1479 67.0698 17.2141 57.2829 17.2141C55.9243 17.2141 54.6014 17.367 53.3305 17.6565Z" fill="#F24E1E"/>
<path d="M39.5623 34.999L40.1822 34.9968L40.1795 34.2227L39.4247 34.3947L39.5623 34.999ZM35.4407 35.4407L35.4464 34.8208L34.8266 34.815L34.8208 35.4349L35.4407 35.4407ZM34.1198 41.9986L33.5464 41.7631L33.3423 42.2603L33.8055 42.5329L34.1198 41.9986ZM35.9396 43.2269L35.5618 43.7183L35.9517 44.0181L36.3323 43.7066L35.9396 43.2269ZM40.4646 40.5328L40.6988 41.1067L41.2359 40.8876L41.0528 40.3371L40.4646 40.5328ZM53.3305 17.6565L52.7107 17.6587L52.7134 18.4328L53.4682 18.2609L53.3305 17.6565ZM17.89 17.5513L17.8842 18.1711L18.504 18.1769L18.5098 17.5571L17.89 17.5513ZM8.74779 50.5555L9.32119 50.791L9.52537 50.2938L9.06211 50.0213L8.74779 50.5555ZM36.3636 71.0026L36.7415 70.5112L36.3516 70.2114L35.971 70.5229L36.3636 71.0026ZM63.9747 51.3485L63.7405 50.7746L63.2034 50.9938L63.3865 51.5442L63.9747 51.3485ZM35.6099 36.0613C37.0152 36.0613 38.3842 35.9032 39.7 35.6034L39.4247 34.3947C38.1986 34.674 36.9219 34.8216 35.6099 34.8216V36.0613ZM35.4349 36.0605C35.4932 36.061 35.5515 36.0613 35.6099 36.0613V34.8216C35.5554 34.8216 35.5009 34.8213 35.4464 34.8208L35.4349 36.0605ZM34.6932 42.2341C35.5543 40.1373 36.038 37.8463 36.0605 35.4465L34.8208 35.4349C34.7998 37.6744 34.3487 39.8097 33.5464 41.7631L34.6932 42.2341ZM36.3175 42.7355C35.718 42.2745 35.0891 41.8497 34.4342 41.4644L33.8055 42.5329C34.4162 42.8922 35.0026 43.2883 35.5618 43.7183L36.3175 42.7355ZM40.2304 39.9589C38.5258 40.6546 36.9496 41.5992 35.547 42.7472L36.3323 43.7066C37.6406 42.6357 39.1102 41.7551 40.6988 41.1067L40.2304 39.9589ZM41.0528 40.3371C40.4943 38.6584 40.1888 36.8635 40.1822 34.9968L38.9425 35.0012C38.9496 37.001 39.2769 38.9266 39.8764 40.7285L41.0528 40.3371ZM53.9504 17.6543C53.9145 7.55558 45.717 -0.619868 35.6099 -0.619868V0.619868C45.0338 0.619868 52.6772 8.24271 52.7107 17.6587L53.9504 17.6543ZM35.6099 -0.619868C25.5392 -0.619868 17.3643 7.49687 17.2701 17.5455L18.5098 17.5571C18.5976 8.18797 26.22 0.619868 35.6099 0.619868V-0.619868ZM17.8958 16.9314C17.8375 16.9309 17.7791 16.9306 17.7207 16.9306V18.1703C17.7753 18.1703 17.8298 18.1706 17.8842 18.1711L17.8958 16.9314ZM17.7207 16.9306C7.5915 16.9306 -0.619868 25.142 -0.619868 35.2712H0.619868C0.619868 25.8267 8.27618 18.1703 17.7207 18.1703V16.9306ZM-0.619868 35.2712C-0.619868 42.0124 3.01738 47.9033 8.43346 51.0898L9.06211 50.0213C4.009 47.0483 0.619868 41.5552 0.619868 35.2712H-0.619868ZM8.17439 50.3201C7.29237 52.4678 6.80631 54.8194 6.80631 57.2829H8.04605C8.04605 54.9837 8.49947 52.7919 9.32119 50.791L8.17439 50.3201ZM6.80631 57.2829C6.80631 67.4122 15.0177 75.6235 25.1469 75.6235V74.3838C15.7024 74.3838 8.04605 66.7275 8.04605 57.2829H6.80631ZM25.1469 75.6235C29.5512 75.6235 33.5945 74.0703 36.7562 71.4823L35.971 70.5229C33.0226 72.9363 29.2546 74.3838 25.1469 74.3838V75.6235ZM35.9857 71.494C39.079 73.8726 42.9533 75.2871 47.1563 75.2871V74.0474C43.2361 74.0474 39.6256 72.7291 36.7415 70.5112L35.9857 71.494ZM47.1563 75.2871C57.2856 75.2871 65.4969 67.0758 65.4969 56.9466H64.2572C64.2572 66.3911 56.6009 74.0474 47.1563 74.0474V75.2871ZM65.4969 56.9466C65.4969 54.923 65.169 52.9748 64.5628 51.1529L63.3865 51.5442C63.9512 53.2415 64.2572 55.0577 64.2572 56.9466H65.4969ZM74.3838 34.9348C74.3838 42.0935 69.985 48.2262 63.7405 50.7746L64.2089 51.9224C70.9037 49.1902 75.6235 42.6145 75.6235 34.9348H74.3838ZM57.2829 17.8339C66.7275 17.8339 74.3838 25.4903 74.3838 34.9348H75.6235C75.6235 24.8056 67.4122 16.5942 57.2829 16.5942V17.8339ZM53.4682 18.2609C54.6943 17.9816 55.971 17.8339 57.2829 17.8339V16.5942C55.8777 16.5942 54.5086 16.7524 53.1928 17.0521L53.4682 18.2609Z" fill="black" mask="url(#path-1-inside-1)"/>
<path d="M50.5192 40.2921C50.5192 47.9886 44.1424 54.2391 36.2622 54.2391C28.382 54.2391 22.0052 47.9886 22.0052 40.2921C22.0052 32.5956 28.382 26.3451 36.2622 26.3451C44.1424 26.3451 50.5192 32.5956 50.5192 40.2921Z" fill="#FFD733" stroke="black" stroke-width="0.619868"/>
</svg>
