<svg width="60" height="60" viewBox="0 0 60 60" fill="none" xmlns="http://www.w3.org/2000/svg">
<mask id="path-1-inside-1" fill="white">
<path fill-rule="evenodd" clip-rule="evenodd" d="M45.065 14.7614C44.8395 6.71627 38.247 0.263672 30.1473 0.263672C21.9525 0.263672 15.3004 6.86881 15.2244 15.0457C15.1769 15.0452 15.1294 15.045 15.0818 15.045C6.83971 15.045 0.158203 21.7265 0.158203 29.9686C0.158203 35.0872 2.73518 39.604 6.66252 42.2922C6.49746 43.181 6.41117 44.0975 6.41117 45.0342C6.41117 53.2762 13.0927 59.9577 21.3347 59.9577C24.869 59.9577 28.1162 58.7292 30.6728 56.6758C33.1702 58.5578 36.2776 59.6735 39.6456 59.6735C47.8877 59.6735 54.5692 52.992 54.5692 44.7499C54.5692 43.5939 54.4377 42.4686 54.189 41.3881C57.6391 38.6546 59.8523 34.4279 59.8523 29.6844C59.8523 21.4878 53.2443 14.8346 45.065 14.7614ZM30.3853 33.0462C30.1672 32.0988 30.0393 31.117 30.0111 30.1102C30.0089 30.1102 30.0068 30.1102 30.0047 30.1101C29.9964 30.9976 29.9107 31.8665 29.754 32.7105C29.9416 32.839 30.1262 32.9716 30.3075 33.1082C30.3334 33.0875 30.3593 33.0668 30.3853 33.0462Z"/>
</mask>
<path fill-rule="evenodd" clip-rule="evenodd" d="M45.065 14.7614C44.8395 6.71627 38.247 0.263672 30.1473 0.263672C21.9525 0.263672 15.3004 6.86881 15.2244 15.0457C15.1769 15.0452 15.1294 15.045 15.0818 15.045C6.83971 15.045 0.158203 21.7265 0.158203 29.9686C0.158203 35.0872 2.73518 39.604 6.66252 42.2922C6.49746 43.181 6.41117 44.0975 6.41117 45.0342C6.41117 53.2762 13.0927 59.9577 21.3347 59.9577C24.869 59.9577 28.1162 58.7292 30.6728 56.6758C33.1702 58.5578 36.2776 59.6735 39.6456 59.6735C47.8877 59.6735 54.5692 52.992 54.5692 44.7499C54.5692 43.5939 54.4377 42.4686 54.189 41.3881C57.6391 38.6546 59.8523 34.4279 59.8523 29.6844C59.8523 21.4878 53.2443 14.8346 45.065 14.7614ZM30.3853 33.0462C30.1672 32.0988 30.0393 31.117 30.0111 30.1102C30.0089 30.1102 30.0068 30.1102 30.0047 30.1101C29.9964 30.9976 29.9107 31.8665 29.754 32.7105C29.9416 32.839 30.1262 32.9716 30.3075 33.1082C30.3334 33.0875 30.3593 33.0668 30.3853 33.0462Z" fill="#FF3333"/>
<path d="M45.065 14.7614L44.4561 14.7785L44.4725 15.3653L45.0595 15.3705L45.065 14.7614ZM15.2244 15.0457L15.2187 15.6548L15.8279 15.6605L15.8335 15.0513L15.2244 15.0457ZM6.66252 42.2922L7.2614 42.4034L7.33381 42.0135L7.00658 41.7896L6.66252 42.2922ZM30.6728 56.6758L31.0394 56.1894L30.6609 55.9042L30.2914 56.2009L30.6728 56.6758ZM54.189 41.3881L53.8107 40.9107L53.509 41.1497L53.5954 41.5248L54.189 41.3881ZM30.3853 33.0462L30.7636 33.5236L31.0653 33.2846L30.9789 32.9095L30.3853 33.0462ZM30.0111 30.1102L30.62 30.0931L30.6035 29.5064L30.0165 29.5011L30.0111 30.1102ZM30.0047 30.1101L30.0101 29.501L29.4012 29.4956L29.3956 30.1045L30.0047 30.1101ZM29.754 32.7105L29.1551 32.5993L29.0827 32.9892L29.4099 33.2132L29.754 32.7105ZM30.3075 33.1082L29.9409 33.5947L30.3195 33.8799L30.689 33.5831L30.3075 33.1082ZM45.6738 14.7443C45.4392 6.3705 38.5777 -0.345454 30.1473 -0.345454V0.872797C37.9163 0.872797 44.2399 7.06203 44.4561 14.7785L45.6738 14.7443ZM30.1473 -0.345454C21.618 -0.345454 14.6944 6.52928 14.6153 15.04L15.8335 15.0513C15.9064 7.20835 22.287 0.872797 30.1473 0.872797V-0.345454ZM15.2301 14.4366C15.1807 14.4361 15.1313 14.4359 15.0818 14.4359V15.6541C15.1275 15.6541 15.1731 15.6544 15.2187 15.6548L15.2301 14.4366ZM15.0818 14.4359C6.5033 14.4359 -0.450922 21.3901 -0.450922 29.9686H0.767329C0.767329 22.0629 7.17612 15.6541 15.0818 15.6541V14.4359ZM-0.450922 29.9686C-0.450922 35.2967 2.23233 39.9979 6.31846 42.7949L7.00658 41.7896C3.23803 39.21 0.767329 34.8777 0.767329 29.9686H-0.450922ZM6.06363 42.181C5.89179 43.1063 5.80204 44.06 5.80204 45.0342H7.02029C7.02029 44.135 7.10312 43.2557 7.2614 42.4034L6.06363 42.181ZM5.80204 45.0342C5.80204 53.6126 12.7563 60.5669 21.3347 60.5669V59.3486C13.4291 59.3486 7.02029 52.9398 7.02029 45.0342H5.80204ZM21.3347 60.5669C25.0126 60.5669 28.3934 59.2878 31.0543 57.1508L30.2914 56.2009C27.839 58.1705 24.7253 59.3486 21.3347 59.3486V60.5669ZM30.3062 57.1623C32.9056 59.1211 36.1409 60.2826 39.6456 60.2826V59.0644C36.4144 59.0644 33.4348 57.9945 31.0394 56.1894L30.3062 57.1623ZM39.6456 60.2826C48.2241 60.2826 55.1783 53.3284 55.1783 44.7499H53.9601C53.9601 52.6556 47.5513 59.0644 39.6456 59.0644V60.2826ZM55.1783 44.7499C55.1783 43.5476 55.0416 42.3764 54.7826 41.2514L53.5954 41.5248C53.8339 42.5607 53.9601 43.6402 53.9601 44.7499H55.1783ZM59.2431 29.6844C59.2431 34.234 57.1213 38.2877 53.8107 40.9107L54.5673 41.8655C58.1569 39.0215 60.4614 34.6219 60.4614 29.6844H59.2431ZM45.0595 15.3705C52.9048 15.4407 59.2431 21.8224 59.2431 29.6844H60.4614C60.4614 21.1532 53.5837 14.2284 45.0704 14.1523L45.0595 15.3705ZM30.9789 32.9095C30.7698 32.0012 30.647 31.0594 30.62 30.0931L29.4022 30.1273C29.4315 31.1746 29.5646 32.1965 29.7917 33.1829L30.9789 32.9095ZM29.9992 30.7192C30.0001 30.7193 30.0011 30.7193 30.0022 30.7193C30.0032 30.7193 30.0044 30.7193 30.0056 30.7193L30.0165 29.5011C30.0156 29.5011 30.0147 29.5011 30.0136 29.5011C30.0126 29.5011 30.0114 29.5011 30.0101 29.501L29.9992 30.7192ZM30.3529 32.8218C30.5161 31.9431 30.6052 31.0388 30.6138 30.1158L29.3956 30.1045C29.3877 30.9564 29.3054 31.79 29.1551 32.5993L30.3529 32.8218ZM30.6741 32.6218C30.4854 32.4796 30.2933 32.3416 30.0981 32.2079L29.4099 33.2132C29.5899 33.3364 29.767 33.4636 29.9409 33.5947L30.6741 32.6218ZM30.007 32.5688C29.98 32.5902 29.953 32.6117 29.9261 32.6333L30.689 33.5831C30.7137 33.5633 30.7386 33.5434 30.7636 33.5236L30.007 32.5688Z" fill="black" mask="url(#path-1-inside-1)"/>
<circle cx="30.0048" cy="31.329" r="11.8779" fill="white" stroke="black" stroke-width="0.609125"/>
</svg>
