<svg width="65" height="66" viewBox="0 0 65 66" fill="none" xmlns="http://www.w3.org/2000/svg">
<mask id="path-1-inside-1" fill="white">
<path fill-rule="evenodd" clip-rule="evenodd" d="M48.4326 15.6347C48.1903 6.95858 41.1113 0 32.4142 0C23.6152 0 16.4726 7.12241 16.3901 15.94C16.3388 15.9395 16.2875 15.9393 16.2361 15.9393C7.38586 15.9393 0.211304 23.145 0.211304 32.0337C0.211304 37.5548 2.97936 42.4266 7.19769 45.3256C7.02029 46.2846 6.92755 47.2734 6.92755 48.284C6.92755 57.1727 14.1021 64.3784 22.9524 64.3784C25.9585 64.3784 28.7713 63.5471 31.1753 62.1008C33.809 64.0081 37.0427 65.1319 40.5377 65.1319C49.3879 65.1319 56.5625 57.9262 56.5625 49.0375C56.5625 47.8982 56.4446 46.7866 56.2205 45.7143C61.0529 42.9427 64.3102 37.7176 64.3102 31.7284C64.3102 22.889 57.2151 15.714 48.4326 15.6347ZM32.6026 35.0516C32.4087 34.124 32.2944 33.167 32.267 32.1881C32.2648 32.1881 32.2625 32.1881 32.2602 32.1881C32.2512 33.145 32.1591 34.082 31.9908 34.9921C32.0998 35.067 32.2078 35.1432 32.3148 35.2207C32.4101 35.1634 32.506 35.107 32.6026 35.0516Z"/>
</mask>
<path fill-rule="evenodd" clip-rule="evenodd" d="M48.4326 15.6347C48.1903 6.95858 41.1113 0 32.4142 0C23.6152 0 16.4726 7.12241 16.3901 15.94C16.3388 15.9395 16.2875 15.9393 16.2361 15.9393C7.38586 15.9393 0.211304 23.145 0.211304 32.0337C0.211304 37.5548 2.97936 42.4266 7.19769 45.3256C7.02029 46.2846 6.92755 47.2734 6.92755 48.284C6.92755 57.1727 14.1021 64.3784 22.9524 64.3784C25.9585 64.3784 28.7713 63.5471 31.1753 62.1008C33.809 64.0081 37.0427 65.1319 40.5377 65.1319C49.3879 65.1319 56.5625 57.9262 56.5625 49.0375C56.5625 47.8982 56.4446 46.7866 56.2205 45.7143C61.0529 42.9427 64.3102 37.7176 64.3102 31.7284C64.3102 22.889 57.2151 15.714 48.4326 15.6347ZM32.6026 35.0516C32.4087 34.124 32.2944 33.167 32.267 32.1881C32.2648 32.1881 32.2625 32.1881 32.2602 32.1881C32.2512 33.145 32.1591 34.082 31.9908 34.9921C32.0998 35.067 32.2078 35.1432 32.3148 35.2207C32.4101 35.1634 32.506 35.107 32.6026 35.0516Z" fill="#FE705E"/>
<path d="M48.4326 15.6347L47.825 15.6516L47.8414 16.2371L48.4271 16.2424L48.4326 15.6347ZM16.3901 15.94L16.3843 16.5477L16.9921 16.5535L16.9978 15.9457L16.3901 15.94ZM7.19769 45.3256L7.79532 45.4361L7.86709 45.0482L7.54192 44.8247L7.19769 45.3256ZM31.1753 62.1008L31.5317 61.6086L31.2063 61.3729L30.8619 61.58L31.1753 62.1008ZM56.2205 45.7143L55.9181 45.1871L55.5353 45.4067L55.6256 45.8386L56.2205 45.7143ZM32.6026 35.0516L32.905 35.5788L33.2878 35.3592L33.1975 34.9272L32.6026 35.0516ZM32.267 32.1881L32.8746 32.1712L32.8582 31.5853L32.2721 31.5804L32.267 32.1881ZM32.2602 32.1881L32.2663 31.5803L31.6582 31.5742L31.6525 32.1824L32.2602 32.1881ZM31.9908 34.9921L31.3932 34.8815L31.3214 35.2695L31.6466 35.493L31.9908 34.9921ZM32.3148 35.2207L31.9583 35.7129L32.2838 35.9486L32.6281 35.7415L32.3148 35.2207ZM49.0401 15.6177C48.7887 6.616 41.4437 -0.607764 32.4142 -0.607764V0.607764C40.779 0.607764 47.5918 7.30116 47.825 15.6516L49.0401 15.6177ZM32.4142 -0.607764C23.279 -0.607764 15.8679 6.78607 15.7823 15.9343L16.9978 15.9457C17.0772 7.45876 23.9514 0.607764 32.4142 0.607764V-0.607764ZM16.3958 15.3323C16.3426 15.3318 16.2894 15.3315 16.2361 15.3315V16.547C16.2856 16.547 16.335 16.5473 16.3843 16.5477L16.3958 15.3323ZM16.2361 15.3315C7.04772 15.3315 -0.396461 22.8118 -0.396461 32.0337H0.819068C0.819068 23.4782 7.72399 16.547 16.2361 16.547V15.3315ZM-0.396461 32.0337C-0.396461 37.7627 2.47662 42.8186 6.85347 45.8265L7.54192 44.8247C3.4821 42.0347 0.819068 37.3469 0.819068 32.0337H-0.396461ZM6.60007 45.215C6.41595 46.2103 6.31979 47.2361 6.31979 48.284H7.53531C7.53531 47.3107 7.62463 46.3588 7.79532 45.4361L6.60007 45.215ZM6.31979 48.284C6.31979 57.5059 13.764 64.9862 22.9524 64.9862V63.7706C14.4402 63.7706 7.53531 56.8395 7.53531 48.284H6.31979ZM22.9524 64.9862C26.0721 64.9862 28.9927 64.1231 31.4886 62.6216L30.8619 61.58C28.5498 62.971 25.8449 63.7706 22.9524 63.7706V64.9862ZM30.8188 62.593C33.5526 64.5729 36.9102 65.7396 40.5377 65.7396V64.5241C37.1751 64.5241 34.0654 63.4434 31.5317 61.6086L30.8188 62.593ZM40.5377 65.7396C49.7261 65.7396 57.1703 58.2593 57.1703 49.0375H55.9547C55.9547 57.593 49.0498 64.5241 40.5377 64.5241V65.7396ZM57.1703 49.0375C57.1703 47.8562 57.048 46.7029 56.8154 45.59L55.6256 45.8386C55.8412 46.8703 55.9547 47.9403 55.9547 49.0375H57.1703ZM63.7025 31.7284C63.7025 37.492 60.5686 42.5199 55.9181 45.1871L56.5229 46.2415C61.5373 43.3656 64.918 37.9433 64.918 31.7284H63.7025ZM48.4271 16.2424C56.8739 16.3187 63.7025 23.2204 63.7025 31.7284H64.918C64.918 22.5577 57.5562 15.1093 48.438 15.0269L48.4271 16.2424ZM33.1975 34.9272C33.011 34.0348 32.9009 33.1137 32.8746 32.1712L31.6595 32.2051C31.6879 33.2203 31.8065 34.2132 32.0077 35.1759L33.1975 34.9272ZM32.2541 32.7958C32.2563 32.7958 32.2591 32.7958 32.2619 32.7959L32.2721 31.5804C32.2704 31.5804 32.2687 31.5804 32.2663 31.5803L32.2541 32.7958ZM32.5884 35.1026C32.7631 34.1581 32.8587 33.1861 32.8679 32.1938L31.6525 32.1824C31.6438 33.104 31.5551 34.0059 31.3932 34.8815L32.5884 35.1026ZM32.6713 34.7285C32.5602 34.648 32.4481 34.5689 32.335 34.4912L31.6466 35.493C31.7514 35.565 31.8553 35.6384 31.9583 35.7129L32.6713 34.7285ZM32.3003 34.5244C32.2 34.5819 32.1004 34.6404 32.0015 34.6999L32.6281 35.7415C32.7198 35.6863 32.8121 35.6321 32.905 35.5788L32.3003 34.5244Z" fill="black" mask="url(#path-1-inside-1)"/>
<path d="M43.6961 35.5C43.6961 42.7989 38.0012 48.6961 31 48.6961C23.9988 48.6961 18.3039 42.7989 18.3039 35.5C18.3039 28.2011 23.9988 22.3039 31 22.3039C38.0012 22.3039 43.6961 28.2011 43.6961 35.5Z" fill="#FFCAB0" stroke="black" stroke-width="0.607764"/>
</svg>
