<svg width="118" height="134" viewBox="0 0 118 134" fill="none" xmlns="http://www.w3.org/2000/svg">
<path fill-rule="evenodd" clip-rule="evenodd" d="M61.42 60.0321C60.9806 90.4423 48.2125 114.961 32.2389 116.109L32.2248 111.407L32.4107 111.149L32.2237 111.014L32.2092 106.19L32.2762 106.233L61.42 60.0321ZM29.9742 109.393L29.9152 89.7198L0.994578 68.8787C1.86593 77.5589 3.75243 85.5573 6.4088 92.4107L29.9742 109.393ZM8.09965 96.396C13.4943 108.032 21.2896 115.544 29.9943 116.116L29.9825 112.165L8.09965 96.396ZM61.2323 56.1226C60.0926 45.75 57.7956 36.8392 54.7243 29.3002L32.1532 65.0812L32.0858 65.0387L32.1564 88.5682L32.3435 88.703L32.1576 88.9609L32.1971 102.151L61.2323 56.1226ZM29.7918 48.5682L29.9069 86.9471L0.739703 65.9283C0.557679 63.4184 0.459952 60.8576 0.452154 58.2565C1.60134 48.0277 3.80216 39.3321 6.69939 31.927L29.7918 48.5682ZM32.0342 47.8101L32.2205 47.5516L32.033 47.4165L31.9896 32.9306L44.958 12.3723C48.1772 16.3863 51.135 21.1791 53.6522 26.7927L32.0737 61L32.0342 47.8101ZM29.7835 45.7954L7.57045 29.788C10.5486 22.7565 14.1658 16.9485 18.0848 12.1337L29.7077 20.5095L29.743 32.2848L29.0414 33.397L29.7477 33.8426L29.7835 45.7954ZM29.6994 17.7368L19.535 10.412C22.7937 6.67304 26.2265 3.57854 29.6492 1.00276L29.6994 17.7368ZM32.1347 19.4917L31.9501 19.7479L31.977 28.7433L43.4448 10.5639C39.7992 6.38947 35.8678 3.15979 31.8933 0.817806L31.9489 19.3579L32.1347 19.4917Z" fill="#3F893D"/>
<path fill-rule="evenodd" clip-rule="evenodd" d="M56.5492 32.9841C62.1173 27.7598 67.7746 23.9126 73.306 21.0955L80.5446 33.4562L75.81 44.2437L74.7231 44.9737L75.1867 45.6639L70.3835 56.6076L56.5492 32.9841ZM81.659 30.9172L75.3289 20.1079C79.8211 18.0076 84.2117 16.5668 88.3834 15.5962L81.659 30.9172ZM90.5117 16.3322L83.0602 33.3099L83.1781 33.5112L82.9005 33.6738L79.286 41.909L97.1334 29.9218C95.4884 24.6279 93.1994 20.0826 90.5117 16.3322ZM54.8871 34.5877C49.2409 40.1873 43.7094 47.249 38.5193 56.1385C37.474 58.52 36.5273 60.9011 35.6782 63.2698L53.8445 94.2906L69.2692 59.1466L54.8871 34.5877ZM71.6243 59.3657L66.3218 71.4471L99.9009 48.8936C99.8706 42.7413 99.1051 37.1613 97.7855 32.1878L77.6032 45.7432L71.7847 59.0003L71.9031 59.2024L71.6243 59.3657ZM55.3641 96.8855L55.0852 97.0488L49.7827 109.13L94.9637 78.7844C98.1192 68.8369 99.6246 59.7581 99.8667 51.6206L64.7483 75.2078L64.7017 75.1384L55.2457 96.6832L55.3641 96.8855ZM34.7174 66.071L52.7301 96.8295L44.8226 114.846L30.1463 89.7847C30.49 82.4416 32.0014 74.3627 34.7174 66.071ZM30.0801 94.1136L43.7083 117.385L42.1206 121.003C34.3938 116.957 30.3055 106.935 30.0801 94.1136ZM46.064 117.603L44.1759 121.905C59.2475 127.32 80.845 110.067 93.5528 82.4359L48.2094 112.891L48.1627 112.821L46.2238 117.239L46.3418 117.44L46.064 117.603ZM43.1338 121.49C43.0642 121.459 42.9948 121.428 42.9258 121.397L43.3432 121.58C43.2732 121.55 43.2034 121.52 43.1338 121.49Z" fill="#49AC47"/>
</svg>
