<svg width="1920" height="963" viewBox="0 0 1920 963" fill="none" xmlns="http://www.w3.org/2000/svg">
<rect width="1920" height="963" fill="white"/>
<rect x="934" y="168.218" width="870" height="10" fill="black"/>
<mask id="path-3-inside-1" fill="white">
<path fill-rule="evenodd" clip-rule="evenodd" d="M891.738 161.733C888.951 162.368 886.051 162.703 883.072 162.703C882.948 162.703 882.825 162.702 882.701 162.701C882.654 167.787 881.629 172.639 879.805 177.079C881.193 177.895 882.525 178.795 883.795 179.772C886.767 177.34 890.106 175.339 893.716 173.865C892.447 170.05 891.753 165.971 891.738 161.733ZM921.923 123.711C921.848 102.318 904.482 85 883.072 85C861.739 85 844.422 102.194 844.222 123.48C844.099 123.479 843.975 123.478 843.851 123.478C822.394 123.478 805 140.873 805 162.33C805 176.608 812.702 189.087 824.179 195.839C822.311 200.387 821.281 205.368 821.281 210.589C821.281 232.046 838.676 249.441 860.133 249.441C869.464 249.441 878.027 246.151 884.725 240.668C891.277 245.707 899.482 248.703 908.387 248.703C929.844 248.703 947.239 231.309 947.239 209.851C947.239 205.563 946.544 201.436 945.26 197.578C959.444 191.789 969.441 177.858 969.441 161.592C969.441 140.135 952.046 122.741 930.589 122.741C927.61 122.741 924.71 123.076 921.923 123.711Z"/>
</mask>
<path fill-rule="evenodd" clip-rule="evenodd" d="M891.738 161.733C888.951 162.368 886.051 162.703 883.072 162.703C882.948 162.703 882.825 162.702 882.701 162.701C882.654 167.787 881.629 172.639 879.805 177.079C881.193 177.895 882.525 178.795 883.795 179.772C886.767 177.34 890.106 175.339 893.716 173.865C892.447 170.05 891.753 165.971 891.738 161.733ZM921.923 123.711C921.848 102.318 904.482 85 883.072 85C861.739 85 844.422 102.194 844.222 123.48C844.099 123.479 843.975 123.478 843.851 123.478C822.394 123.478 805 140.873 805 162.33C805 176.608 812.702 189.087 824.179 195.839C822.311 200.387 821.281 205.368 821.281 210.589C821.281 232.046 838.676 249.441 860.133 249.441C869.464 249.441 878.027 246.151 884.725 240.668C891.277 245.707 899.482 248.703 908.387 248.703C929.844 248.703 947.239 231.309 947.239 209.851C947.239 205.563 946.544 201.436 945.26 197.578C959.444 191.789 969.441 177.858 969.441 161.592C969.441 140.135 952.046 122.741 930.589 122.741C927.61 122.741 924.71 123.076 921.923 123.711Z" fill="#F24E1E"/>
<path d="M891.738 161.733L892.358 161.731L892.355 160.957L891.6 161.129L891.738 161.733ZM882.701 162.701L882.707 162.081L882.087 162.076L882.081 162.695L882.701 162.701ZM879.805 177.079L879.232 176.844L879.028 177.341L879.491 177.613L879.805 177.079ZM883.795 179.772L883.417 180.264L883.807 180.563L884.188 180.252L883.795 179.772ZM893.716 173.865L893.95 174.439L894.487 174.22L894.304 173.67L893.716 173.865ZM921.923 123.711L921.304 123.713L921.306 124.487L922.061 124.315L921.923 123.711ZM844.222 123.48L844.217 124.1L844.836 124.106L844.842 123.486L844.222 123.48ZM824.179 195.839L824.752 196.075L824.956 195.578L824.493 195.305L824.179 195.839ZM884.725 240.668L885.103 240.177L884.713 239.877L884.332 240.189L884.725 240.668ZM945.26 197.578L945.026 197.004L944.489 197.223L944.672 197.774L945.26 197.578ZM883.072 163.323C886.098 163.323 889.044 162.982 891.876 162.337L891.6 161.129C888.859 161.753 886.004 162.083 883.072 162.083V163.323ZM882.695 163.321C882.821 163.322 882.946 163.323 883.072 163.323V162.083C882.95 162.083 882.829 162.083 882.707 162.081L882.695 163.321ZM880.379 177.315C882.232 172.803 883.273 167.873 883.321 162.707L882.081 162.695C882.034 167.701 881.026 172.475 879.232 176.844L880.379 177.315ZM884.173 179.281C882.883 178.289 881.529 177.374 880.12 176.545L879.491 177.613C880.856 178.417 882.167 179.302 883.417 180.264L884.173 179.281ZM893.482 173.292C889.814 174.789 886.421 176.821 883.403 179.293L884.188 180.252C887.112 177.858 890.398 175.889 893.95 174.439L893.482 173.292ZM894.304 173.67C893.055 169.916 892.372 165.903 892.358 161.731L891.118 161.735C891.133 166.04 891.838 170.184 893.128 174.061L894.304 173.67ZM922.543 123.709C922.466 101.975 904.824 84.3801 883.072 84.3801V85.6199C904.141 85.6199 921.229 102.662 921.304 123.713L922.543 123.709ZM883.072 84.3801C861.399 84.3801 843.805 101.848 843.603 123.474L844.842 123.486C845.039 102.539 862.08 85.6199 883.072 85.6199V84.3801ZM844.228 122.86C844.103 122.859 843.977 122.858 843.851 122.858V124.098C843.973 124.098 844.095 124.099 844.217 124.1L844.228 122.86ZM843.851 122.858C822.052 122.858 804.38 140.53 804.38 162.33H805.62C805.62 141.215 822.737 124.098 843.851 124.098V122.858ZM804.38 162.33C804.38 176.837 812.207 189.515 823.865 196.374L824.493 195.305C813.198 188.66 805.62 176.379 805.62 162.33H804.38ZM823.606 195.604C821.708 200.225 820.661 205.286 820.661 210.589H821.901C821.901 205.45 822.915 200.549 824.752 196.075L823.606 195.604ZM820.661 210.589C820.661 232.388 838.333 250.06 860.133 250.06V248.821C839.018 248.821 821.901 231.704 821.901 210.589H820.661ZM860.133 250.06C869.612 250.06 878.313 246.718 885.117 241.148L884.332 240.189C877.741 245.584 869.316 248.821 860.133 248.821V250.06ZM884.347 241.16C891.004 246.279 899.341 249.323 908.387 249.323V248.083C899.624 248.083 891.551 245.135 885.103 240.177L884.347 241.16ZM908.387 249.323C930.187 249.323 947.858 231.651 947.858 209.851H946.619C946.619 230.966 929.502 248.083 908.387 248.083V249.323ZM947.858 209.851C947.858 205.495 947.153 201.303 945.848 197.382L944.672 197.774C945.935 201.569 946.619 205.63 946.619 209.851H947.858ZM968.821 161.592C968.821 177.598 958.985 191.307 945.026 197.004L945.494 198.152C959.904 192.271 970.06 178.119 970.06 161.592H968.821ZM930.589 123.361C951.704 123.361 968.821 140.477 968.821 161.592H970.06C970.06 139.793 952.388 122.121 930.589 122.121V123.361ZM922.061 124.315C924.803 123.691 927.657 123.361 930.589 123.361V122.121C927.564 122.121 924.617 122.461 921.786 123.106L922.061 124.315Z" fill="black" mask="url(#path-3-inside-1)"/>
<path d="M916.129 173.338C916.129 190.423 901.976 204.285 884.502 204.285C867.029 204.285 852.875 190.423 852.875 173.338C852.875 156.252 867.029 142.39 884.502 142.39C901.976 142.39 916.129 156.252 916.129 173.338Z" fill="#FFD733" stroke="black" stroke-width="0.619868"/>
<rect x="147" y="813.329" width="1128.84" height="9.86504" fill="black"/>
<path fill-rule="evenodd" clip-rule="evenodd" d="M1734.75 709.987C1733.75 779.125 1704.73 834.869 1668.41 837.48L1668.38 826.788L1668.8 826.202L1668.38 825.895L1668.34 814.929L1668.49 815.025L1734.75 709.987ZM1663.26 822.21L1663.13 777.483L1597.37 730.1C1599.36 749.834 1603.64 768.019 1609.68 783.601L1663.26 822.21ZM1613.53 792.661C1625.79 819.116 1643.52 836.195 1663.31 837.496L1663.28 828.514L1613.53 792.661ZM1734.33 701.099C1731.74 677.516 1726.51 657.257 1719.53 640.117L1668.22 721.466L1668.06 721.369L1668.22 774.864L1668.65 775.171L1668.22 775.758L1668.31 805.745L1734.33 701.099ZM1662.85 683.923L1663.11 771.179L1596.8 723.392C1596.38 717.686 1596.16 711.863 1596.14 705.95C1598.75 682.694 1603.76 662.925 1610.34 646.089L1662.85 683.923ZM1667.94 682.2L1668.37 681.612L1667.94 681.305L1667.84 648.371L1697.33 601.631C1704.65 610.757 1711.37 621.653 1717.09 634.416L1668.03 712.188L1667.94 682.2ZM1662.83 677.619L1612.33 641.226C1619.1 625.239 1627.32 612.035 1636.23 601.088L1662.66 620.131L1662.74 646.903L1661.14 649.431L1662.75 650.444L1662.83 677.619ZM1662.64 613.827L1639.53 597.174C1646.94 588.673 1654.74 581.637 1662.52 575.781L1662.64 613.827ZM1668.17 617.817L1667.75 618.399L1667.81 638.851L1693.89 597.519C1685.6 588.028 1676.66 580.686 1667.62 575.361L1667.75 617.512L1668.17 617.817Z" fill="#3F893D"/>
<path fill-rule="evenodd" clip-rule="evenodd" d="M1723.68 648.492C1736.34 636.615 1749.2 627.868 1761.78 621.463L1778.23 649.565L1767.47 674.091L1765 675.751L1766.05 677.32L1755.13 702.201L1723.68 648.492ZM1780.77 643.793L1766.38 619.218C1776.59 614.443 1786.57 611.167 1796.06 608.961L1780.77 643.793ZM1800.89 610.633L1783.95 649.233L1784.22 649.691L1783.59 650.061L1775.37 668.783L1815.95 641.53C1812.21 629.494 1807.01 619.16 1800.89 610.633ZM1719.9 652.138C1707.06 664.869 1694.49 680.924 1682.69 701.135C1680.31 706.549 1678.16 711.963 1676.23 717.348L1717.53 787.875L1752.6 707.973L1719.9 652.138ZM1757.95 708.472L1745.9 735.939L1822.24 684.663C1822.17 670.676 1820.43 657.989 1817.43 646.682L1771.55 677.501L1758.32 707.641L1758.59 708.1L1757.95 708.472ZM1720.99 793.774L1720.35 794.146L1708.3 821.613L1811.02 752.621C1818.19 730.005 1821.61 709.364 1822.16 690.863L1742.32 744.49L1742.21 744.332L1720.72 793.314L1720.99 793.774ZM1674.04 723.717L1715 793.647L1697.02 834.609L1663.65 777.631C1664.43 760.936 1667.87 742.568 1674.04 723.717ZM1663.5 787.473L1694.49 840.381L1690.88 848.606C1673.31 839.407 1664.01 816.622 1663.5 787.473ZM1699.84 840.876L1695.55 850.657C1729.81 862.969 1778.92 823.743 1807.81 760.923L1704.72 830.163L1704.61 830.005L1700.2 840.048L1700.47 840.506L1699.84 840.876ZM1693.18 849.713C1693.02 849.643 1692.86 849.573 1692.71 849.502L1693.65 849.917C1693.5 849.85 1693.34 849.782 1693.18 849.713Z" fill="#49AC47"/>
</svg>
