<svg width="69" height="69" viewBox="0 0 69 69" fill="none" xmlns="http://www.w3.org/2000/svg">
<path d="M41.104 21.167C40.0283 19.6303 38.8344 18.07 37.8179 16.3914C37.4278 15.7531 37.1086 14.6656 37.4041 14.1337C37.7115 13.5899 38.8108 13.188 39.5319 13.2353C42.0615 13.389 44.5793 13.6963 47.0853 14.0982C48.0665 14.2519 48.6457 13.9682 49.3194 13.3535C51.5654 11.2731 53.8232 9.20443 56.1518 7.24219C56.7192 6.75754 57.8777 6.27289 58.3269 6.53294C58.9179 6.87575 59.3671 7.95143 59.3671 8.71978C59.3671 10.8239 59.1661 12.9398 58.9415 15.0439C58.8351 16.0132 58.6224 16.2732 60.0763 16.6515C61.7076 17.077 63.3625 17.4435 64.9465 18.0227C65.5021 18.2237 66.1877 18.9093 66.2468 19.4412C66.3177 19.9731 65.833 20.8833 65.3484 21.1434C63.3625 22.1954 61.3057 23.1056 59.2252 23.9567C58.4332 24.2759 58.0313 24.595 57.9131 25.4934C57.4521 29.2761 56.8965 33.0351 56.3646 36.8059C56.3173 37.1369 56.0455 39.5365 54.6506 39.5247C54.0477 39.5247 53.4804 39.5246 52.6293 38.4253C50.4306 35.3756 48.3265 32.2549 46.2697 29.1106C45.7259 28.2831 45.2531 27.9876 44.2483 28.2477C41.9788 28.8505 39.6855 29.3588 37.3805 29.808C36.8131 29.9144 35.9147 30.3163 35.5601 29.5125C35.2646 28.9805 35.7374 28.3304 36.0566 27.893C37.6642 25.6589 39.3546 23.4721 41.104 21.167ZM56.0218 18.3182C53.7168 17.8809 51.6009 17.4435 49.4731 17.0889C49.1658 17.0298 48.7166 17.1834 48.4802 17.3962C47.0026 18.7556 45.5605 20.1741 44.071 21.6044C44.8276 22.7392 45.4304 23.7439 46.1515 24.666C46.3643 24.9497 46.9435 25.1861 47.2745 25.1033C49.8159 24.4296 52.3337 23.6967 54.8397 22.9165C55.1589 22.8219 55.5608 22.4082 55.6199 22.1009C55.8209 20.907 55.8918 19.6894 56.0218 18.3182ZM53.8941 35.9311C54.3669 32.1721 54.7925 28.8269 55.2416 25.3398C52.7356 26.0726 50.4188 26.7464 47.901 27.4793C49.9105 30.3163 51.79 32.9641 53.8941 35.9311ZM56.9793 9.44085C54.9107 11.344 53.1375 12.9753 51.1517 14.7956C53.0312 15.1503 54.6151 15.4576 56.3292 15.7768C56.5419 13.6845 56.7311 11.7577 56.9793 9.44085ZM46.0333 16.3678C43.8701 16.0841 42.0497 15.8359 39.8156 15.5404C40.9504 17.1007 41.8487 18.3182 42.7589 19.5594C43.8346 18.5192 44.8039 17.5735 46.0333 16.3678ZM62.7124 19.6894C61.3766 19.4176 60.0409 19.1457 58.6224 18.862C58.516 19.914 58.4332 20.7651 58.3269 21.8526C59.9936 21.167 62.736 19.7958 62.7124 19.6894ZM39.6501 26.5691C39.7092 26.6637 42.5934 26.2145 44.1183 25.8717C43.5273 24.9733 43.0545 24.2522 42.4989 23.4248C41.4587 24.5832 40.5603 25.5762 39.6501 26.5691Z" fill="black"/>
<path d="M23.9639 51.8775C22.4863 51.121 21.0087 50.4117 19.5784 49.6079C17.7817 48.615 17.7226 47.1729 19.5548 46.239C21.4697 45.2579 23.4911 44.4186 25.5479 43.8039C26.5881 43.4848 27.652 42.9056 27.652 42.9056C27.652 42.9056 28.2785 41.5816 28.444 41.1325C29.1296 39.2884 30.028 37.5153 30.9027 35.754C31.8602 33.8154 33.3496 33.709 34.4844 35.5767C35.4064 37.0898 36.1038 38.7447 36.9667 40.4587C38.9881 40.104 41.104 39.7494 43.2199 39.3593C44.2247 39.182 45.454 38.9456 45.8087 40.0568C46.0451 40.8015 45.6905 42.0308 45.1585 42.681C43.9292 44.2177 42.4988 45.6007 41.0331 46.9128C40.1347 47.7166 39.9219 48.3668 40.3948 49.537C41.3286 51.8893 42.0969 54.3244 42.7826 56.7595C42.9717 57.4214 42.8535 58.509 42.4279 58.9109C41.9906 59.3128 40.8912 59.3719 40.2411 59.1355C37.6878 58.2016 35.1582 57.1496 32.6876 55.9911C31.6474 55.5065 31.0209 55.6602 30.2053 56.3812C28.1958 58.1543 26.1508 59.892 24.023 61.5232C23.4911 61.9251 22.6518 62.2798 21.8835 62.0315C21.1979 61.9015 21.3634 60.613 21.517 60.0102C22.2263 57.3269 23.0892 54.7027 23.9639 51.8775ZM26.8482 50.8255C28.1012 51.4047 29.1769 51.9721 30.3117 52.4094C30.6545 52.5395 31.2573 52.4449 31.5528 52.2203C33.1132 51.0028 34.6262 49.738 36.1038 48.4259C36.3757 48.1894 36.7185 47.9885 36.4939 47.2792C36.1275 46.0853 35.6074 44.9269 35.0991 43.6385C33.1486 44.1704 31.2928 44.655 29.4724 45.2224C29.1414 45.3288 29.0114 45.2697 28.6686 46.0853C28.0184 47.5748 27.4865 49.1351 26.8482 50.8255ZM33.326 53.7925C35.5246 54.6436 37.4869 55.4001 39.7683 56.2748C38.9763 54.0052 38.3143 52.1376 37.5932 50.0926C36.1511 51.3456 34.8508 52.4686 33.326 53.7925ZM30.1225 42.2791C31.6474 41.8653 32.8413 41.5344 34.1889 41.1679C33.6451 39.8085 33.1723 38.6028 32.534 37.0188C31.6474 38.9574 30.95 40.4705 30.1225 42.2791ZM24.4249 57.7642C24.4959 57.8115 27.4747 55.5774 29.0114 54.3244C27.9593 53.8161 27.0964 53.3906 26.1153 52.9177C25.5243 54.6317 24.9687 56.2039 24.4249 57.7642ZM38.8817 45.4352C40.0401 44.3122 41.2104 43.1656 42.4161 42.0072C40.9503 42.3264 39.4727 42.6573 37.8651 43.0001C38.2552 43.9458 38.598 44.7496 38.8817 45.4352ZM26.2571 46.1326C24.4013 46.8301 22.9592 47.362 21.1979 48.024C22.5809 48.7214 23.6448 49.2651 24.815 49.8443C25.276 48.6623 25.6898 47.5866 26.2571 46.1326Z" fill="black"/>
<path d="M20.1458 15.2564C22.2381 14.5354 24.2594 13.767 26.3162 13.1523C26.9191 12.975 27.9593 12.975 28.2075 13.2942C28.7631 14.0034 28.5503 14.8072 28.2312 15.3037C26.7299 17.6797 25.1223 19.9966 23.4438 22.2543C22.7582 23.1645 22.4981 23.921 22.8764 25.0677C23.5383 27.0181 24.0703 29.0276 24.484 31.049C24.6258 31.7346 24.4958 32.8221 24.0466 33.2003C23.6093 33.5668 22.5218 33.4722 21.8716 33.2122C20.2995 32.6093 18.7746 31.8409 17.297 31.0371C16.3395 30.517 15.7012 30.6234 14.8383 31.3563C13.337 32.6211 11.6939 33.7441 10.0272 34.7961C8.59691 35.6945 7.66307 35.2926 7.78128 33.7323C7.86403 32.8339 7.89949 31.8764 8.0768 30.9662C8.26593 29.9496 8.79787 27.7746 8.77422 27.5618C7.34391 27.0299 5.81904 26.5571 4.37691 25.9069C3.76223 25.6232 2.93478 24.9731 2.92296 24.4648C2.89931 23.8383 3.46671 22.9281 4.04593 22.5853C6.06727 21.4032 11.5285 18.8499 11.5285 18.8499C12.0604 17.4196 12.7224 14.9018 13.207 13.4597C13.7153 11.9703 14.2236 10.4809 14.7673 9.01508C14.9801 8.44769 15.6066 7.67934 16.0676 7.6557C16.5641 7.63206 17.3324 8.27038 17.5807 8.80231C18.5027 10.8591 19.2592 12.9869 20.1458 15.2564ZM11.5285 26.2852C12.7342 26.7817 13.7626 27.2309 14.8146 27.6209C15.0865 27.7155 15.5475 27.7628 15.7012 27.6091C16.9896 26.3088 18.2426 24.9613 19.472 23.6137C19.5784 23.5073 19.5902 23.2354 19.5429 23.07C19.1056 21.5569 18.6564 20.0557 18.1954 18.5071C16.5877 19.1809 15.1929 19.7365 13.8335 20.363C13.4434 20.5403 12.9824 20.8949 12.8642 21.2614C12.3677 22.869 11.9895 24.5121 11.5285 26.2852ZM21.7416 21.0486C23.2546 19.11 25.7015 15.552 25.607 15.4574C23.9875 16.1312 22.3563 16.7931 20.6777 17.4906C21.0205 18.6372 21.3279 19.6656 21.7416 21.0486ZM13.8453 17.7979C15.2638 17.195 16.375 16.734 17.5689 16.2257C17.0606 14.6063 16.5877 13.0696 15.9967 11.1901C15.2402 13.5188 14.59 15.5047 13.8453 17.7979ZM17.5452 28.8621C19.0465 29.5359 20.3704 30.1269 21.9307 30.8362C21.387 29.0749 20.9378 27.6209 20.4413 26.0488C19.4247 27.0299 18.5736 27.8574 17.5452 28.8621ZM10.4646 21.7815C8.7624 22.6208 7.37938 23.3064 5.64173 24.1575C7.17842 24.7012 8.30139 25.0913 9.47165 25.4932C9.79081 24.2757 10.0745 23.2354 10.4646 21.7815ZM9.88538 32.0183C10.0036 32.101 12.5096 30.4934 13.8217 29.465C12.7105 29.0276 11.9067 28.7203 10.9847 28.3656C10.5946 29.6777 10.24 30.848 9.88538 32.0183Z" fill="black"/>
</svg>
