<svg width="95" height="96" viewBox="0 0 95 96" fill="none" xmlns="http://www.w3.org/2000/svg">
<g clip-path="url(#clip0)">
<path d="M60.3158 41.1811C60.3083 39.3053 60.2171 37.3427 60.339 35.3841C60.3825 34.6373 60.7404 33.5619 61.2865 33.2934C61.849 33.022 62.9813 33.3186 63.5467 33.7686C65.5372 35.3371 67.4304 37.0252 69.26 38.7843C69.9784 39.4699 70.616 39.5671 71.52 39.4463C74.5513 39.0177 77.5856 38.6056 80.6175 38.3213C81.36 38.2467 82.588 38.509 82.8087 38.9788C83.0988 39.5974 82.8545 40.7372 82.4164 41.3684C81.2167 43.097 79.8452 44.7207 78.461 46.3212C77.8209 47.0569 77.4978 47.1492 78.4766 48.2889C79.5741 49.5686 80.7247 50.8133 81.6958 52.1923C82.0376 52.6741 82.2099 53.6283 81.9552 54.099C81.7102 54.5764 80.793 55.0478 80.2466 54.9851C78.0153 54.7171 75.8066 54.2921 73.6122 53.8051C72.7796 53.6157 72.2674 53.6488 71.6581 54.3194C69.1226 57.1641 66.5229 59.9354 63.9359 62.7299C63.7083 62.9749 62.1168 64.7912 60.9776 63.9862C60.4824 63.6425 60.0162 63.319 59.9438 61.9306C59.8765 58.1715 59.9272 54.4081 60.0303 50.6522C60.0554 49.6624 59.8355 49.15 58.8617 48.7908C56.6535 47.992 54.4797 47.102 52.33 46.1568C51.8032 45.9207 50.836 45.7386 51.003 44.8761C51.0635 44.2706 51.8226 44.0061 52.3342 43.8287C54.9287 42.91 57.5643 42.0772 60.3158 41.1811ZM74.1954 47.3464C72.5511 45.6728 71.0622 44.1071 69.5165 42.6026C69.2977 42.3788 68.841 42.2489 68.5255 42.2889C66.5365 42.5632 64.543 42.9063 62.5039 43.2321C62.4784 44.5957 62.4007 45.7649 62.4674 46.9335C62.4804 47.2879 62.8215 47.8123 63.1406 47.9331C65.6126 48.8286 68.0989 49.6621 70.6025 50.45C70.9186 50.5543 71.4847 50.4436 71.7085 50.2248C72.5543 49.3586 73.3068 48.3988 74.1954 47.3464ZM62.405 60.6027C64.9368 57.7842 67.1937 55.2786 69.551 52.67C67.0744 51.8432 64.7869 51.0757 62.3005 50.2422C62.3339 53.7186 62.3682 56.9655 62.405 60.6027ZM80.0437 40.5994C77.2591 40.9834 74.8724 41.3125 72.203 41.6757C73.5448 43.0387 74.6709 44.1943 75.897 45.4338C77.2647 43.8363 78.5187 42.3612 80.0437 40.5994ZM67.1017 40.0489C65.4863 38.5825 64.1323 37.3406 62.4655 35.824C62.5081 37.7529 62.5519 39.2653 62.592 40.804C64.0688 40.5627 65.4043 40.3385 67.1017 40.0489ZM78.91 52.2877C77.9677 51.3027 77.0254 50.3178 76.0218 49.2759C75.3346 50.0795 74.7813 50.7315 74.0739 51.5643C75.834 51.9514 78.8688 52.3885 78.91 52.2877ZM56.0412 44.79C56.0358 44.9014 58.6615 46.1769 60.1096 46.7647C60.1363 45.6897 60.159 44.8277 60.1744 43.8312C58.6593 44.1898 57.3551 44.4933 56.0412 44.79Z" fill="black"/>
<path d="M28.7245 56.6377C27.942 55.1737 27.1325 53.7486 26.4158 52.2727C25.5058 50.4325 26.2795 49.2141 28.3172 49.4916C30.4498 49.7774 32.5889 50.2405 34.6291 50.9082C35.6656 51.2391 36.8699 51.3699 36.8699 51.3699C36.8699 51.3699 38.1394 50.6395 38.5315 50.3648C40.1462 49.2408 41.8952 48.2964 43.618 47.3482C45.51 46.3015 46.7942 47.0633 46.6616 49.2447C46.5563 51.0134 46.1857 52.7706 45.9173 54.6707C47.7801 55.5319 49.7206 56.447 51.6813 57.333C52.6078 57.7602 53.7526 58.2669 53.4104 59.382C53.18 60.1285 52.1877 60.9363 51.38 61.1671C49.4939 61.7286 47.5303 62.0493 45.578 62.2915C44.3816 62.4396 43.8361 62.8524 43.5573 64.0833C42.9833 66.5483 42.2261 68.9869 41.4009 71.3782C41.1788 72.0299 40.4617 72.8559 39.8829 72.9435C39.2944 73.0243 38.3576 72.446 37.9583 71.8811C36.3932 69.6581 34.9149 67.3515 33.5458 64.9912C32.9675 63.9999 32.3652 63.769 31.284 63.8963C28.6222 64.2072 25.9514 64.4687 23.2733 64.5956C22.6072 64.6225 21.7155 64.4353 21.2258 63.7933C20.7367 63.2956 21.6073 62.3314 22.0773 61.9238C24.1899 60.1238 26.395 58.4599 28.7245 56.6377ZM31.6938 57.418C32.393 58.6082 32.9531 59.6877 33.636 60.694C33.8435 60.9963 34.3927 61.2624 34.7635 61.2463C36.7396 61.1358 38.7038 60.9594 40.6658 60.7239C41.0239 60.6847 41.4201 60.7151 41.64 60.0044C42.0197 58.8146 42.2529 57.5664 42.57 56.2181C40.6644 55.543 38.8634 54.883 37.0444 54.3112C36.7118 54.2099 36.6387 54.0872 35.892 54.5618C34.5087 55.4147 33.182 56.3932 31.6938 57.418ZM35.3238 63.5489C36.6448 65.5017 37.8254 67.242 39.2009 69.2614C39.8443 66.9453 40.3654 65.0336 40.939 62.9424C39.0399 63.1495 37.3314 63.3307 35.3238 63.5489ZM39.2567 52.2638C40.7453 52.7934 41.9149 53.2022 43.2309 53.6695C43.5592 52.2427 43.8583 50.9826 44.237 49.3174C42.4033 50.4045 40.9677 51.2498 39.2567 52.2638ZM25.7468 61.7367C25.7781 61.816 29.4991 61.679 31.476 61.5258C30.9015 60.5084 30.4352 59.6668 29.8988 58.719C28.436 59.7901 27.0831 60.7649 25.7468 61.7367ZM44.653 59.8509C46.245 59.5889 47.8602 59.3142 49.5112 59.0499C48.1251 58.4764 46.7225 57.9058 45.2063 57.2708C44.9876 58.2701 44.8109 59.1259 44.653 59.8509ZM33.884 53.2257C31.9617 52.7405 30.4737 52.3552 28.6493 51.8948C29.3878 53.2563 29.9518 54.3096 30.5829 55.4527C31.6357 54.7444 32.5889 54.0966 33.884 53.2257Z" fill="black"/>
<path d="M46.4682 24.3756C48.5982 24.9762 50.6968 25.4975 52.737 26.1653C53.3334 26.3633 54.188 26.9564 54.2099 27.3602C54.262 28.2596 53.6288 28.7987 53.0836 29.0245C50.4956 30.1205 47.8538 31.1072 45.1876 32.005C44.1054 32.3618 43.4604 32.8351 43.1173 33.9927C42.5491 35.9725 41.8403 37.9266 41.0277 39.8231C40.7533 40.4672 40.0264 41.2865 39.4417 41.3411C38.8735 41.3928 38.034 40.6951 37.6481 40.1107C36.7003 38.719 35.8857 37.2184 35.1301 35.7156C34.6401 34.7423 34.055 34.4658 32.9282 34.5759C30.9738 34.759 28.9836 34.7447 27.0145 34.6586C25.3273 34.5812 24.7893 33.7185 25.776 32.5041C26.3562 31.8132 26.9313 31.0468 27.5959 30.4002C28.3309 29.6729 30.0081 28.1893 30.11 28.0011C29.2382 26.7485 28.2551 25.4907 27.441 24.1343C27.0978 23.5508 26.7887 22.5449 27.0688 22.1205C27.4066 21.5924 28.3917 21.1681 29.063 21.2168C31.3976 21.3982 37.3399 22.4144 37.3399 22.4144C38.5924 21.5427 40.5718 19.8517 41.7923 18.9432C43.0591 18.0095 44.3259 17.0757 45.6083 16.1816C46.1066 15.8367 47.0594 15.5627 47.4516 15.8062C47.873 16.0698 48.1402 17.0323 48.0409 17.6109C47.6256 19.8263 47.0339 22.0056 46.4682 24.3756ZM33.1005 28.5227C33.808 29.618 34.3967 30.5734 35.0386 31.4937C35.208 31.7264 35.5598 32.0281 35.7737 31.9895C37.5736 31.6559 39.3713 31.2633 41.1496 30.8572C41.2976 30.8304 41.4624 30.6138 41.5179 30.4509C42.0213 28.9585 42.5082 27.4691 43.0124 25.9341C41.3075 25.571 39.8448 25.2321 38.3709 24.9717C37.9493 24.895 37.3684 24.9234 37.0623 25.1571C35.7378 26.1947 34.4903 27.3289 33.1005 28.5227ZM44.4766 30.0439C46.825 29.314 50.8639 27.7861 50.8401 27.6545C49.1255 27.2847 47.408 26.8984 45.6313 26.5143C45.2592 27.6517 44.9253 28.6718 44.4766 30.0439ZM39.8431 22.8712C41.3522 23.1847 42.5279 23.4395 43.7985 23.7026C44.3043 22.0824 44.792 20.5504 45.3781 18.6693C43.4289 20.1511 41.7625 21.4118 39.8431 22.8712ZM36.5742 34.0703C37.4233 35.4798 38.1739 36.7202 39.0514 38.1925C39.6089 36.4355 40.0689 34.9849 40.5575 33.4103C39.1629 33.6367 37.9919 33.8312 36.5742 34.0703ZM34.7944 24.2162C32.9175 23.9351 31.3904 23.7098 29.4776 23.4182C30.43 24.7411 31.1302 25.7019 31.8624 26.6993C32.8188 25.881 33.645 25.1882 34.7944 24.2162ZM28.4819 32.2957C28.5318 32.4311 31.5072 32.5392 33.1715 32.4425C32.508 31.4496 32.0229 30.7388 31.4676 29.9218C30.399 30.7773 29.4405 31.5365 28.4819 32.2957Z" fill="black"/>
</g>
<defs>
<clipPath id="clip0">
<rect width="68.0875" height="68.0875" fill="white" transform="translate(38.9238 0.851562) rotate(34.7623)"/>
</clipPath>
</defs>
</svg>
